<svg width="122" height="130" viewBox="0 0 122 130" fill="none" xmlns="http://www.w3.org/2000/svg">
<g filter="url(#filter0_d_23_360)">
<rect x="2" y="2" width="112" height="120" rx="28" fill="white"/>
<path d="M52.0304 99.4249H63.6955C64.2642 99.4249 64.8046 99.4761 65.3563 99.5444V29.2127C65.3563 24.6741 61.921 21 57.6838 21C53.4409 21 50 24.6741 50 29.2127V99.5956C50.6711 99.4875 51.3422 99.4249 52.0304 99.4249Z" fill="#F4A219"/>
<path d="M65.2146 44.1137L94.0787 74.8774V81.8617L65.2146 66.9548V44.1137ZM65.2146 86.2866L72.9553 94.3514V102.604L65.2146 100.295V86.2866ZM49.8641 85.7747L42.1291 93.8396V102.081L49.8641 99.7773V85.7747ZM49.8641 44L21 74.7523V81.7479L49.8641 66.8353V44ZM56.2454 100.619H58.9243C59.0494 100.619 59.1859 100.63 59.3053 100.653V83.8239C59.3053 82.7432 58.5148 81.8617 57.5422 81.8617C56.5696 81.8617 55.7734 82.7376 55.7734 83.8239V100.665C55.929 100.635 56.087 100.62 56.2454 100.619Z" fill="#205B9C"/>
</g>
<defs>
<filter id="filter0_d_23_360" x="0" y="0" width="122" height="130" filterUnits="userSpaceOnUse" color-interpolation-filters="sRGB">
<feFlood flood-opacity="0" result="BackgroundImageFix"/>
<feColorMatrix in="SourceAlpha" type="matrix" values="0 0 0 0 0 0 0 0 0 0 0 0 0 0 0 0 0 0 127 0" result="hardAlpha"/>
<feOffset dx="3" dy="3"/>
<feGaussianBlur stdDeviation="2.5"/>
<feComposite in2="hardAlpha" operator="out"/>
<feColorMatrix type="matrix" values="0 0 0 0 0 0 0 0 0 0 0 0 0 0 0 0 0 0 0.25 0"/>
<feBlend mode="normal" in2="BackgroundImageFix" result="effect1_dropShadow_23_360"/>
<feBlend mode="normal" in="SourceGraphic" in2="effect1_dropShadow_23_360" result="shape"/>
</filter>
</defs>
</svg>
