<svg width="32" height="31" viewBox="0 0 32 31" fill="none" xmlns="http://www.w3.org/2000/svg">
<path d="M32 3.6875V10.4375L16 17.1875L0 10.4375V3.6875C0 3.23995 0.168571 2.81073 0.468629 2.49426C0.768687 2.17779 1.17565 2 1.6 2H30.4C30.8243 2 31.2313 2.17779 31.5314 2.49426C31.8314 2.81073 32 3.23995 32 3.6875ZM0 14.0724V27.3125C0 27.7601 0.168571 28.1893 0.468629 28.5057C0.768687 28.8222 1.17565 29 1.6 29H30.4C30.8243 29 31.2313 28.8222 31.5314 28.5057C31.8314 28.1893 32 27.7601 32 27.3125V14.0724L16 20.8224L0 14.0724Z" fill="#F4A219"/>
</svg>
