<svg width="48" height="48" viewBox="0 0 48 48" fill="none" xmlns="http://www.w3.org/2000/svg">
<path d="M24 1C11.35 1 1 11.3685 1 24.1386C1 35.6848 9.41799 45.2681 20.412 47V30.8354H14.57V24.1386H20.412V19.0351C20.412 13.2389 23.839 10.0522 29.106 10.0522C31.613 10.0522 34.235 10.491 34.235 10.491V16.1948H31.337C28.485 16.1948 27.588 17.9729 27.588 19.7972V24.1386H33.982L32.947 30.8354H27.588V47C33.0077 46.1405 37.943 43.3641 41.5027 39.1717C45.0624 34.9795 47.0124 29.6475 46.9999 24.1386C46.9999 11.3685 36.65 1 24 1Z" fill="#F4A219"/>
</svg>
