<svg width="122" height="130" viewBox="0 0 122 130" fill="none" xmlns="http://www.w3.org/2000/svg">
<g filter="url(#filter0_d_23_333)">
<rect x="2" y="2" width="112" height="120" rx="28" fill="white"/>
<g clip-path="url(#clip0_23_333)">
<path d="M96.5113 48.6432H16.3792C14.9657 48.6432 13.8198 49.7891 13.8198 51.2026V104.941C13.8198 106.354 14.9657 107.5 16.3792 107.5H96.5113C97.9248 107.5 99.0707 106.354 99.0707 104.941V51.2026C99.0707 49.7891 97.9248 48.6432 96.5113 48.6432Z" fill="#F4A219"/>
<path d="M97.791 46.2284H16.9908C15.2396 46.2284 13.8198 47.6481 13.8198 49.3994V51.4847H99.0707V47.5081C99.0707 47.1687 98.9358 46.8432 98.6958 46.6032C98.4558 46.3632 98.1304 46.2284 97.791 46.2284Z" fill="#F4A219"/>
<path d="M100.473 24.1426H45.1514C44.258 24.1426 43.5337 25.0593 43.5337 26.1901V105.453C43.5337 106.583 44.258 107.5 45.1514 107.5H100.473C101.366 107.5 102.09 106.583 102.09 105.453V26.1901C102.09 25.0593 101.366 24.1426 100.473 24.1426Z" fill="#205B9C"/>
<path d="M97.3447 19.8309H48.3622C45.6955 19.8309 43.5337 21.9927 43.5337 24.6594V26.8228H102.173V24.6594C102.173 21.9927 100.011 19.8309 97.3447 19.8309Z" fill="#F4A219"/>
<path d="M35.8818 89.5913H22.1623C21.8229 89.5913 21.4974 89.4565 21.2574 89.2165C21.0174 88.9765 20.8826 88.651 20.8826 88.3116V82.6988C20.8826 82.3594 21.0174 82.0339 21.2574 81.7939C21.4974 81.5539 21.8229 81.4191 22.1623 81.4191H35.8818C36.2211 81.4191 36.5466 81.5539 36.7866 81.7939C37.0266 82.0339 37.1614 82.3594 37.1614 82.6988V88.3116C37.1614 88.651 37.0266 88.9765 36.7866 89.2165C36.5466 89.4565 36.2211 89.5913 35.8818 89.5913ZM37.1614 100.836V95.2228C37.1614 94.8834 37.0266 94.5579 36.7866 94.3179C36.5466 94.0779 36.2211 93.9431 35.8818 93.9431H22.0917C21.7523 93.9431 21.4268 94.0779 21.1868 94.3179C20.9468 94.5579 20.812 94.8834 20.812 95.2228V100.836C20.812 101.175 20.9468 101.501 21.1868 101.741C21.4268 101.981 21.7523 102.115 22.0917 102.115H35.8818C36.2211 102.115 36.5466 101.981 36.7866 101.741C37.0266 101.501 37.1614 101.175 37.1614 100.836ZM84.4838 86.6706H61.1684V107.5H84.4838V86.6706ZM32.7894 56.2842V62.4088C32.7893 62.659 32.6899 62.899 32.5129 63.0759C32.336 63.2529 32.096 63.3523 31.8458 63.3524H26.1277C25.8775 63.3523 25.6375 63.2529 25.4605 63.0759C25.2836 62.899 25.1841 62.659 25.1841 62.4088V56.2844C25.1841 56.0342 25.0846 55.7942 24.9077 55.6172C24.7307 55.4403 24.4907 55.3409 24.2405 55.3408H21.9179C21.6676 55.3409 21.4277 55.4403 21.2507 55.6172C21.0738 55.7942 20.9743 56.0342 20.9743 56.2844V76.1128C20.9743 76.3631 21.0738 76.603 21.2507 76.78C21.4277 76.9569 21.6676 77.0564 21.9179 77.0564H24.2407C24.4909 77.0564 24.7309 76.9569 24.9079 76.78C25.0848 76.603 25.1842 76.3631 25.1843 76.1128V68.5056C25.1843 68.2554 25.2838 68.0154 25.4607 67.8384C25.6376 67.6615 25.8776 67.5621 26.1279 67.562H31.8461C32.0964 67.5621 32.3363 67.6615 32.5133 67.8384C32.6902 68.0154 32.7897 68.2554 32.7897 68.5056V76.1128C32.7898 76.3631 32.8892 76.603 33.0661 76.78C33.2431 76.9569 33.4831 77.0564 33.7333 77.0564H36.0561C36.3064 77.0564 36.5463 76.9569 36.7233 76.78C36.9002 76.603 36.9997 76.3631 36.9997 76.1128V56.2842C36.9997 56.034 36.9002 55.794 36.7233 55.6171C36.5463 55.4401 36.3064 55.3407 36.0561 55.3406H33.7333C33.6094 55.3406 33.4866 55.365 33.3721 55.4124C33.2576 55.4598 33.1536 55.5293 33.0659 55.6169C32.9782 55.7046 32.9087 55.8086 32.8613 55.9231C32.8138 56.0376 32.7894 56.1603 32.7894 56.2842Z" fill="black"/>
<path d="M76.6186 60.8968H69.0075C68.6681 60.8968 68.3426 60.762 68.1026 60.522C67.8626 60.282 67.7278 59.9565 67.7278 59.6171V51.6918C67.7278 51.3524 67.8626 51.0269 68.1026 50.7869C68.3426 50.5469 68.6681 50.4121 69.0075 50.4121H76.6186C76.958 50.4121 77.2835 50.5469 77.5235 50.7869C77.7634 51.0269 77.8983 51.3524 77.8983 51.6918V59.6171C77.8983 59.9565 77.7634 60.282 77.5235 60.522C77.2835 60.762 76.958 60.8968 76.6186 60.8968ZM95.6861 59.6171V51.6918C95.6861 51.3524 95.5513 51.0269 95.3113 50.7869C95.0713 50.5469 94.7458 50.4121 94.4064 50.4121H86.7953C86.4559 50.4121 86.1304 50.5469 85.8904 50.7869C85.6504 51.0269 85.5156 51.3524 85.5156 51.6918V59.6171C85.5156 59.9565 85.6504 60.282 85.8904 60.522C86.1304 60.762 86.4559 60.8968 86.7953 60.8968H94.4064C94.7458 60.8968 95.0713 60.762 95.3113 60.522C95.5513 60.282 95.6861 59.9565 95.6861 59.6171ZM77.8983 76.6142V68.6889C77.8983 68.3495 77.7634 68.024 77.5235 67.784C77.2835 67.544 76.958 67.4092 76.6186 67.4092H69.0075C68.6681 67.4092 68.3426 67.544 68.1026 67.784C67.8626 68.024 67.7278 68.3495 67.7278 68.6889V76.6142C67.7278 76.9536 67.8626 77.2791 68.1026 77.5191C68.3426 77.7591 68.6681 77.8939 69.0075 77.8939H76.6186C76.958 77.8939 77.2835 77.7591 77.5235 77.5191C77.7634 77.2791 77.8983 76.9536 77.8983 76.6142ZM95.6861 76.6142V68.6889C95.6861 68.3495 95.5513 68.024 95.3113 67.784C95.0713 67.544 94.7458 67.4092 94.4064 67.4092H86.7953C86.4559 67.4092 86.1304 67.544 85.8904 67.784C85.6504 68.024 85.5156 68.3495 85.5156 68.6889V76.6142C85.5156 76.9536 85.6504 77.2791 85.8904 77.5191C86.1304 77.7591 86.4559 77.8939 86.7953 77.8939H94.4064C94.7458 77.8939 95.0713 77.7591 95.3113 77.5191C95.5513 77.2791 95.6861 76.9536 95.6861 76.6142ZM60.1104 59.6171V51.6918C60.1104 51.3524 59.9756 51.0269 59.7356 50.7869C59.4956 50.5469 59.1701 50.4121 58.8307 50.4121H51.2196C50.8802 50.4121 50.5547 50.5469 50.3148 50.7869C50.0748 51.0269 49.9399 51.3524 49.9399 51.6918V59.6171C49.9399 59.9565 50.0748 60.282 50.3148 60.522C50.5547 60.762 50.8802 60.8968 51.2196 60.8968H58.8307C59.1701 60.8968 59.4956 60.762 59.7356 60.522C59.9756 60.282 60.1104 59.9565 60.1104 59.6171ZM60.1104 76.6142V68.6889C60.1104 68.3495 59.9756 68.024 59.7356 67.784C59.4956 67.544 59.1701 67.4092 58.8307 67.4092H51.2196C50.8802 67.4092 50.5547 67.544 50.3148 67.784C50.0748 68.024 49.9399 68.3495 49.9399 68.6889V76.6142C49.9399 76.9536 50.0748 77.2791 50.3148 77.5191C50.5547 77.7591 50.8802 77.8939 51.2196 77.8939H58.8307C59.1701 77.8939 59.4956 77.7591 59.7356 77.5191C59.9756 77.2791 60.1104 76.9536 60.1104 76.6142ZM77.8983 42.5898V34.6645C77.8983 34.3251 77.7634 33.9996 77.5235 33.7596C77.2835 33.5196 76.958 33.3848 76.6186 33.3848H69.0075C68.6681 33.3848 68.3426 33.5196 68.1026 33.7596C67.8626 33.9996 67.7278 34.3251 67.7278 34.6645V42.5898C67.7278 42.9292 67.8626 43.2547 68.1026 43.4947C68.3426 43.7347 68.6681 43.8695 69.0075 43.8695H76.6186C76.958 43.8695 77.2835 43.7347 77.5235 43.4947C77.7634 43.2547 77.8983 42.9292 77.8983 42.5898ZM95.6861 42.5898V34.6645C95.6861 34.3251 95.5513 33.9996 95.3113 33.7596C95.0713 33.5196 94.7458 33.3848 94.4064 33.3848H86.7953C86.4559 33.3848 86.1304 33.5196 85.8904 33.7596C85.6504 33.9996 85.5156 34.3251 85.5156 34.6645V42.5898C85.5156 42.9292 85.6504 43.2547 85.8904 43.4947C86.1304 43.7347 86.4559 43.8695 86.7953 43.8695H94.4064C94.7458 43.8695 95.0713 43.7347 95.3113 43.4947C95.5513 43.2547 95.6861 42.9292 95.6861 42.5898ZM60.1104 42.5898V34.6645C60.1104 34.3251 59.9756 33.9996 59.7356 33.7596C59.4956 33.5196 59.1701 33.3848 58.8307 33.3848H51.2196C50.8802 33.3848 50.5547 33.5196 50.3148 33.7596C50.0748 33.9996 49.9399 34.3251 49.9399 34.6645V42.5898C49.9399 42.9292 50.0748 43.2547 50.3148 43.4947C50.5547 43.7347 50.8802 43.8695 51.2196 43.8695H58.8307C59.1701 43.8695 59.4956 43.7347 59.7356 43.4947C59.9756 43.2547 60.1104 42.9292 60.1104 42.5898ZM84.6652 83.7017H60.9867C60.0194 83.7017 59.2353 84.4859 59.2353 85.4531V88.4453C59.2353 88.6677 59.3237 88.881 59.481 89.0383C59.6383 89.1956 59.8516 89.284 60.074 89.284H72.2038V107.5H73.448V89.284H85.578C85.8004 89.284 86.0137 89.1956 86.171 89.0383C86.3283 88.881 86.4167 88.6677 86.4167 88.4453V85.4531C86.4167 84.4859 85.6326 83.7017 84.6652 83.7017Z" fill="#F2F2F2"/>
</g>
</g>
<defs>
<filter id="filter0_d_23_333" x="0" y="0" width="122" height="130" filterUnits="userSpaceOnUse" color-interpolation-filters="sRGB">
<feFlood flood-opacity="0" result="BackgroundImageFix"/>
<feColorMatrix in="SourceAlpha" type="matrix" values="0 0 0 0 0 0 0 0 0 0 0 0 0 0 0 0 0 0 127 0" result="hardAlpha"/>
<feOffset dx="3" dy="3"/>
<feGaussianBlur stdDeviation="2.5"/>
<feComposite in2="hardAlpha" operator="out"/>
<feColorMatrix type="matrix" values="0 0 0 0 0 0 0 0 0 0 0 0 0 0 0 0 0 0 0.25 0"/>
<feBlend mode="normal" in2="BackgroundImageFix" result="effect1_dropShadow_23_333"/>
<feBlend mode="normal" in="SourceGraphic" in2="effect1_dropShadow_23_333" result="shape"/>
</filter>
<clipPath id="clip0_23_333">
<rect width="91" height="91" fill="white" transform="translate(12.5 16.5)"/>
</clipPath>
</defs>
</svg>
