<svg width="48" height="48" viewBox="0 0 48 48" fill="none" xmlns="http://www.w3.org/2000/svg">
<path d="M43.8438 20.1137V7.98438C43.8438 5.81687 42.0269 4 39.8594 4H7.98438C5.81687 4 4 5.81687 4 7.98438V20.1137H13.6675C15.1919 15.9531 19.2344 12.9644 23.9219 12.9644C28.6094 12.9644 32.6519 15.9531 34.1762 20.1137H43.8438ZM43.8438 23.6294H34.8794V23.9219C34.8794 29.9575 29.9575 34.8794 23.9219 34.8794C17.8862 34.8794 12.9644 29.9575 12.9644 23.9219V23.6294H4V39.8594C4 42.0269 5.81687 43.8438 7.98438 43.8438H39.8594C42.0269 43.8438 43.8438 42.0269 43.8438 39.8594V23.6294ZM7.4575 7.51562H9.45063V16.6562H7.4575V7.51562ZM11.4419 7.51562H13.435V16.6562H11.4419V7.51562ZM15.4262 7.51562H17.4194V13.2587C16.7744 13.7275 16.0712 14.2544 15.4262 14.7831V7.51562ZM23.9219 31.4219C28.0825 31.4219 31.3637 28.0825 31.3637 23.9219C31.3637 19.7612 28.0825 16.48 23.9219 16.48C19.7612 16.48 16.4219 19.7612 16.4219 23.9219C16.4219 28.0825 19.7612 31.4219 23.9219 31.4219ZM30.895 7.51562H40.3281V16.6562H34C33.1788 15.4262 32.0669 14.4288 30.895 13.6094V7.51562Z" fill="#F4A219"/>
</svg>
