<svg width="122" height="130" viewBox="0 0 122 130" fill="none" xmlns="http://www.w3.org/2000/svg">
<g filter="url(#filter0_d_23_341)">
<rect x="2" y="2" width="112" height="120" rx="28" fill="white"/>
<path d="M85.2545 38.8645L64.8665 17.2712H16.2227V106.729H85.2545V38.8645Z" fill="#F2F2F2"/>
<path d="M38.8309 53.6607C38.8309 59.5224 35.1004 64.2743 30.4985 64.2743C25.8966 64.2743 22.166 59.5224 22.166 53.6607C22.166 47.7989 25.8966 43.047 30.4985 43.047C35.1004 43.047 38.8309 47.7989 38.8309 53.6607Z" fill="#F2F2F2"/>
<path d="M38.8309 85.5015C38.8309 91.3632 35.1004 96.1151 30.4985 96.1151C25.8966 96.1151 22.166 91.3632 22.166 85.5015C22.166 79.6397 25.8966 74.8878 30.4985 74.8878C35.1004 74.8878 38.8309 79.6397 38.8309 85.5015Z" fill="#F2F2F2"/>
<path d="M66.2383 17.4999V38.4999H85.2383L66.2383 17.4999Z" fill="#818181"/>
<path d="M62.6378 58.2094H44.7826C44.1244 58.2094 43.5923 57.5301 43.5923 56.6932C43.5923 55.8563 44.1244 55.1769 44.7826 55.1769H62.6378C63.2961 55.1769 63.8281 55.8563 63.8281 56.6932C63.8281 57.5301 63.2961 58.2094 62.6378 58.2094Z" fill="#818181"/>
<path d="M60.2571 52.1444H44.7826C44.1244 52.1444 43.5923 51.4651 43.5923 50.6282C43.5923 49.7913 44.1244 49.1119 44.7826 49.1119H60.2572C60.9155 49.1119 61.4476 49.7913 61.4476 50.6282C61.4476 51.4651 60.9154 52.1444 60.2571 52.1444Z" fill="#818181"/>
<path d="M30.4985 58.2094C30.1831 58.2094 29.8807 58.0516 29.657 57.7651L27.2763 54.7326C26.8109 54.1398 26.8109 53.1814 27.2763 52.5886C27.7417 51.9958 28.4941 51.9958 28.9595 52.5886L30.3689 54.3839L33.1079 49.72C33.5008 49.0484 34.2459 48.9119 34.7744 49.4137C35.3006 49.9155 35.4088 50.8662 35.0148 51.5364L31.4521 57.6014C31.245 57.9547 30.9272 58.1745 30.5832 58.2063C30.5557 58.2078 30.526 58.2094 30.4985 58.2094Z" fill="#205B9C"/>
<path d="M62.6378 90.0502H44.7826C44.1244 90.0502 43.5923 89.3709 43.5923 88.5339C43.5923 87.697 44.1244 87.0177 44.7826 87.0177H62.6378C63.2961 87.0177 63.8281 87.697 63.8281 88.5339C63.8281 89.3709 63.2961 90.0502 62.6378 90.0502Z" fill="#818181"/>
<path d="M60.2571 83.9854H44.7826C44.1244 83.9854 43.5923 83.3061 43.5923 82.4692C43.5923 81.6323 44.1244 80.9529 44.7826 80.9529H60.2572C60.9155 80.9529 61.4476 81.6323 61.4476 82.4692C61.4474 83.3061 60.9154 83.9854 60.2571 83.9854Z" fill="#818181"/>
<path d="M30.4985 90.0502C30.1831 90.0502 29.8807 89.8927 29.657 89.6059L27.2763 86.5735C26.8109 85.9806 26.8109 85.0223 27.2763 84.4294C27.7417 83.8366 28.4941 83.8366 28.9595 84.4294L30.3689 86.2247L33.1079 81.5609C33.5008 80.8906 34.2459 80.7528 34.7744 81.2546C35.3006 81.7564 35.4088 82.707 35.0148 83.3773L31.4521 89.4422C31.245 89.7955 30.9272 90.0153 30.5832 90.0473C30.5557 90.0489 30.526 90.0502 30.4985 90.0502Z" fill="#205B9C"/>
<path d="M99.7772 90.8083L95.0158 101.422L90.2544 90.8083V19.5228C90.2544 17.861 91.3127 16.5131 92.6173 16.5131H97.4143C98.719 16.5131 99.7772 17.861 99.7772 19.5228V90.8083Z" fill="#F4A219"/>
<path d="M95.016 107.487C94.3578 107.487 93.8257 106.808 93.8257 105.971V102.938C93.8257 102.101 94.3578 101.422 95.016 101.422C95.6743 101.422 96.2064 102.101 96.2064 102.938V105.971C96.2064 106.808 95.6743 107.487 95.016 107.487Z" fill="black"/>
<path d="M90.2544 31.9009H99.7772V25.7059H90.2544V31.9009Z" fill="#205B9C"/>
</g>
<defs>
<filter id="filter0_d_23_341" x="0" y="0" width="122" height="130" filterUnits="userSpaceOnUse" color-interpolation-filters="sRGB">
<feFlood flood-opacity="0" result="BackgroundImageFix"/>
<feColorMatrix in="SourceAlpha" type="matrix" values="0 0 0 0 0 0 0 0 0 0 0 0 0 0 0 0 0 0 127 0" result="hardAlpha"/>
<feOffset dx="3" dy="3"/>
<feGaussianBlur stdDeviation="2.5"/>
<feComposite in2="hardAlpha" operator="out"/>
<feColorMatrix type="matrix" values="0 0 0 0 0 0 0 0 0 0 0 0 0 0 0 0 0 0 0.25 0"/>
<feBlend mode="normal" in2="BackgroundImageFix" result="effect1_dropShadow_23_341"/>
<feBlend mode="normal" in="SourceGraphic" in2="effect1_dropShadow_23_341" result="shape"/>
</filter>
</defs>
</svg>
